<svg width="58" height="50" fill="none" xmlns="http://www.w3.org/2000/svg"><g clip-path="url(#clip0_58:1334)" fill="#000"><path d="M9.301 37.837v11.007c0 1.018-.137 1.128-1.045 1.156-.716.028-.991-.248-.991-.963.027-1.899 0-3.798 0-5.696V37.92H-.027v-2.01h7.292V1.321C7.292.303 7.347.22 8.338.22c4.183 0 8.393-.11 12.576.027 5.861.22 10.126 3.22 12.3 8.585 2.45 6.027.413 12.879-5.586 16.649-2.421 1.513-5.118 2.063-7.925 2.118-3.137.028-6.247 0-9.384 0h-.99v8.283h17.886v1.954H9.301zm.083-12.355c3.88 0 7.622.055 11.392-.028 2.312-.055 4.54-.578 6.467-2.009 2.89-2.174 4.65-4.98 4.898-8.668.193-2.89-.468-5.448-2.201-7.787-2.422-3.275-5.78-4.678-9.742-4.734-3.274-.055-6.549 0-9.851 0-.303 0-.605.056-.963.11v23.116zM57.07 9.026c0 5.036-3.99 8.97-9.08 8.943-4.98-.027-8.888-3.99-8.888-9.026s3.99-8.97 9.08-8.943c4.981.027 8.889 3.99 8.889 9.026zm-2.008.027c.028-3.962-3-7.044-6.907-7.044-3.963-.028-7.045 3-7.045 6.907-.027 3.962 3 7.044 6.907 7.044 3.935.028 7.017-3 7.045-6.907z"/><path d="M49.121 4.128v3.357c0 1.568 0 1.568 1.541 1.596h.358c1.569 0 1.734.22 1.266 1.981-1.294 0-2.614.083-3.935-.027-.688-.055-1.211-.633-1.239-1.376-.055-1.624-.027-3.22-.027-4.843 0-.55.303-.77.825-.743.303 0 .606.027 1.211.055z"/></g><defs><clipPath id="clip0_58:1334"><path fill="#fff" d="M0 0h57.072v50H0z"/></clipPath></defs></svg>