<svg width="55" height="50" fill="none" xmlns="http://www.w3.org/2000/svg"><g clip-path="url(#clip0_70:53)"><path d="M14.117 21.19c2.07-1.265 3.652-2.875 5.147-4.514 1.064-1.15 1.984-2.444 2.904-3.737 1.696-2.358 2.3-5.118 2.616-7.936.058-.575.144-1.15.26-1.696.402-1.697 1.465-2.79 3.162-3.163 1.668-.374 3.191.115 4.169 1.552.604.892 1.15 1.927 1.38 2.962.834 3.738.92 7.475.172 11.242-.028.173-.057.374-.114.748.575.028 1.063.115 1.552.115h13.082c1.18 0 2.272.172 3.307.776 3.249 1.869 3.738 6.21.949 8.77-.23.23-.49.43-.777.718.978 1.236 1.87 2.444 1.697 4.14-.201 1.668-1.122 2.818-2.56 3.68.835 1.323 1.122 2.703.748 4.17-.373 1.409-1.294 2.415-2.616 3.019 0 .143-.029.258 0 .316 2.243 3.048-1.093 7.792-4.917 7.706-6.268-.144-12.536-.03-18.804-.03h-4.571c-2.1.03-4.083-.402-6.01-1.207-.574-.23-1.063-.345-1.523.202-.546.632-1.294.718-2.1.718H3.077c-2.04 0-2.99-.949-3.018-2.961C0 43.128 0 39.534 0 35.94V22.714c0-2.156.805-3.134 2.961-3.249 2.732-.115 5.463-.057 8.195-.029 1.207.03 2.214.547 2.961 1.754zm18.057 26.912c3.824 0 7.676.03 11.5-.028.69 0 1.467-.087 2.1-.345 2.386-.978 2.76-3.594.833-5.233-.143-.115-.316-.23-.431-.374-.518-.604-.403-1.208.345-1.466.489-.173 1.035-.202 1.524-.345 1.092-.288 1.725-1.007 1.955-2.07.23-1.036-.144-1.87-.949-2.56-.23-.172-.517-.287-.69-.517-.259-.316-.604-.719-.546-1.035.029-.288.489-.604.834-.805.287-.173.632-.173.977-.23.978-.259 1.725-.719 2.013-1.812.259-1.063-.115-1.897-.863-2.559-.46-.402-1.064-.66-1.524-1.035-.287-.258-.66-.69-.632-1.006.029-.316.46-.661.776-.862.345-.23.805-.26 1.208-.46 1.696-.834 2.386-2.53 1.811-4.313-.46-1.438-1.898-2.387-3.709-2.387H33.9c-.431 0-.863.029-1.294-.029-.891-.115-1.265-.632-1.006-1.495 1.092-3.364 1.121-6.756.632-10.207-.201-1.409-.345-2.846-1.294-4.054-.632-.805-1.437-1.15-2.415-.834-.891.26-1.466.863-1.581 1.84-.086.72-.201 1.41-.316 2.128-.374 2.358-.892 4.687-2.128 6.814-2.358 3.94-5.434 7.246-9.172 9.92-.863.604-1.15 1.236-1.121 2.243.057 2.156.028 4.313.028 6.469 0 4.6.03 9.2-.028 13.8 0 .835.258 1.295 1.035 1.611 1.869.805 3.824 1.236 5.865 1.236 3.68.03 7.39 0 11.07 0zM1.869 34.532v10.35c0 .633 0 1.236.029 1.869.028.661.345 1.064 1.063 1.064h8.195c.719 0 1.035-.403 1.121-1.035.058-.431.058-.863.058-1.294V23.203c0-1.581-.202-1.754-1.697-1.754H3.594c-1.581 0-1.696.144-1.696 1.725-.03 3.796-.03 7.59-.03 11.357z" fill="#000"/></g><defs><clipPath id="clip0_70:53"><path fill="#fff" d="M0 0h54.543v50H0z"/></clipPath></defs></svg>