<svg width="44" height="50" fill="none" xmlns="http://www.w3.org/2000/svg"><g clip-path="url(#clip0_71:56)" fill="#000"><path d="M.057 4.138c1.227-.257 2.454-.514 3.653-.742C9.475 2.283 15.24 1.142 21.005.057c.627-.114 1.34-.028 1.969.114 6.421 1.227 12.842 2.512 19.235 3.767 1.056.2 1.056.2 1.056 1.285 0 4.737-.029 9.503 0 14.24.057 6.307-1.912 11.987-5.508 17.095-3.938 5.594-9.075 9.818-15.04 13.1-.8.428-1.427.428-2.226 0-6.193-3.425-11.473-7.849-15.468-13.756C2.54 32.249.913 28.168.257 23.772c-.2-1.255-.228-2.568-.228-3.852C0 14.983 0 10.046 0 5.108c0-.285.029-.57.057-.97zM2.17 5.88c-.029.342-.086.57-.086.828.029 4.88.029 9.76.143 14.64.114 4.595 1.627 8.819 4.081 12.671 3.653 5.765 8.676 10.074 14.583 13.413.543.314.97.286 1.484-.028 4.281-2.426 8.077-5.422 11.359-9.133 4.766-5.393 7.391-11.643 7.449-18.892.028-4.138 0-8.276 0-12.415 0-.342-.029-.684-.058-1.055-.485-.115-.884-.2-1.284-.286-5.48-1.084-10.93-2.14-16.41-3.225-.941-.171-1.855-.342-2.854-.142-4.423.913-8.875 1.74-13.299 2.597-1.712.342-3.396.684-5.108 1.027z"/><path d="M32.333 13.1c.456.37.885.713 1.37 1.112.085.057.085.2.028.286-4.423 5.336-8.79 10.673-13.242 16.038a.785.785 0 01-1.198 0l-8.562-10.33c-.086-.115-.086-.286.029-.372l1.227-1.027a.269.269 0 01.37.028c2.312 2.769 4.596 5.508 6.964 8.334a.785.785 0 001.199 0c3.881-4.71 7.705-9.361 11.558-14.041.057-.086.171-.086.257-.029z"/></g><defs><clipPath id="clip0_71:56"><path fill="#fff" d="M0 0h43.293v50H0z"/></clipPath></defs></svg>