<svg width="51" height="50" fill="none" xmlns="http://www.w3.org/2000/svg"><g clip-path="url(#clip0_58:1328)" fill="#05141F"><path d="M25.069 0c13.574-.164 25.04 11.357 24.959 25.096C49.973 38.67 38.588 50.027 24.959 50 11.275 49.973-.08 38.478-.027 24.877.083 11.303 11.385-.164 25.069 0zm.082 1.943c-12.59-.63-23.7 10.81-23.153 22.852-.63 11.877 9.497 23.317 22.906 23.371 12.452.055 23.18-9.906 23.29-23.125.082-13.328-11.357-23.618-23.043-23.098z"/><path d="M24.766 5.227c7.745.328 13.437 3.613 17.35 9.962.548.875.931 1.86 1.315 2.846.164.438.246.985.218 1.478-.082 1.642-1.313 2.682-2.928 2.49a68.844 68.844 0 01-4.05-.602c-1.67-.3-3.093-1.04-4.133-2.463-3.475-4.79-11.521-4.762-14.97-.055-1.149 1.588-2.764 2.326-4.625 2.573-1.067.137-2.162.328-3.229.492-.876.137-1.724.137-2.463-.465-.903-.711-1.259-1.697-.876-2.791 1.177-3.312 3.038-6.213 5.72-8.511 2.655-2.245 5.638-3.86 9.086-4.489 1.259-.246 2.572-.355 3.585-.465zm17.05 14.888c-.137-.876-.137-1.423-.329-1.888-1.779-4.325-4.789-7.5-9.03-9.415-4.9-2.217-9.908-2.244-14.806 0-4.461 2.053-7.609 5.419-9.305 10.044-.11.301-.082.657-.165 1.15.685 0 1.232.054 1.752 0 .903-.11 1.779-.329 2.682-.411 1.587-.137 2.737-.93 3.777-2.162 4.46-5.2 12.452-5.392 17.104-.164 1.204 1.34 2.463 2.216 4.242 2.408 1.232.082 2.49.246 4.078.438zm-.519 7.581c1.725.027 2.983 1.751 2.463 3.23-2.216 6.348-6.43 10.672-12.807 12.834-1.834.63-3.996-1.313-3.722-3.338.218-1.615.63-3.202.985-4.79.191-.93.766-1.614 1.505-2.216 1.04-.876 2.08-1.752 3.038-2.71.684-.657 1.395-1.177 2.299-1.423 1.943-.52 3.858-1.013 5.801-1.533.165-.054.356-.054.438-.054zm.548 1.998c-.548.027-1.04 0-1.505.11-1.45.355-2.901.793-4.352 1.121-.82.192-1.478.602-2.08 1.204-.876.876-1.833 1.642-2.71 2.49-.41.411-.957.85-1.094 1.342a31.759 31.759 0 00-.903 4.543c-.137 1.122.547 1.642 1.615 1.259a20.75 20.75 0 002.983-1.341c3.94-2.217 6.568-5.556 8.046-9.798.082-.246 0-.52 0-.93zM8.676 27.887c.356.055.711.082 1.067.165 1.642.383 3.257.82 4.899 1.204a5.265 5.265 0 012.573 1.45 27.122 27.122 0 002.627 2.381 4.332 4.332 0 011.56 2.49c.328 1.478.602 2.929.875 4.407.192 1.149-.164 2.189-1.012 2.983-.766.739-1.587 1.04-2.71.602-5.72-2.217-9.742-6.076-12.014-11.796-.356-.903-.684-1.833-.027-2.736.52-.684 1.177-1.204 2.162-1.15zm11.686 12.097c-.247-1.123-.52-2.737-.903-4.324-.082-.356-.41-.685-.685-.958-.875-.849-1.778-1.67-2.682-2.518-.3-.274-.602-.657-.957-.739a268.184 268.184 0 00-6.322-1.642c-.438-.11-.684.191-.657.63 0 .273.082.547.191.793 1.944 4.953 5.392 8.43 10.345 10.427 1.177.465 1.67.11 1.67-1.67z"/></g><defs><clipPath id="clip0_58:1328"><path fill="#fff" d="M0 0h50.027v50H0z"/></clipPath></defs></svg>