<svg width="70" height="17" fill="none" xmlns="http://www.w3.org/2000/svg"><path d="M40.619 14.588c0 .132.04.206.115.206.057 0 .107-.025.173-.066L62.723.552a2.114 2.114 0 011.26-.38h4.79C69.514.173 70 .668 70 1.4v9.154c0 1.103-.247 1.745-1.227 2.338l-5.82 3.49a.293.293 0 01-.19.083c-.073 0-.131-.058-.131-.255V5.524c0-.115-.041-.206-.115-.206-.058 0-.107.025-.165.066L46.39 15.74c-.445.289-.816.379-1.227.379h-10.57c-.741 0-1.227-.494-1.227-1.227V1.696c0-.099-.041-.19-.115-.19-.058 0-.107.025-.173.066L22.557 7.887c-.107.065-.132.115-.132.164 0 .05.017.09.09.165l7.517 7.516c.099.099.173.173.173.255 0 .09-.107.132-.24.132h-6.8c-.534 0-.946-.082-1.226-.37l-4.569-4.553c-.04-.041-.082-.074-.131-.074a.262.262 0 00-.14.05l-7.624 4.577c-.46.28-.782.37-1.226.37H1.227C.494 16.119 0 15.625 0 14.884V5.903c0-1.112.247-1.746 1.227-2.33L7.08.049A.341.341 0 017.245 0c.082 0 .131.09.131.296v12.02c0 .123.033.189.115.189.058 0 .107-.033.173-.074L27.447.543c.469-.288.765-.37 1.309-.37H39.4c.741 0 1.227.494 1.227 1.227v13.188h-.008z" fill="#05141F"/></svg>